<?xml version="1.0" encoding="UTF-8"?>
<svg viewBox="0 0 166.57356 257.72787" xmlns="http://www.w3.org/2000/svg" xmlns:xlink="http://www.w3.org/1999/xlink">
 <defs>
  <filter id="l">
   <feGaussianBlur stdDeviation="7.5218"/>
  </filter>
  <filter id="j">
   <feGaussianBlur stdDeviation=".3891"/>
  </filter>
  <filter id="k" x="-.15117" y="-.15869" width="1.3023" height="1.3174">
   <feGaussianBlur stdDeviation="1.6735"/>
  </filter>
  <filter id="b" x="-.23333" y="-.24706" width="1.4667" height="1.4941">
   <feGaussianBlur stdDeviation=".3737"/>
  </filter>
  <linearGradient id="a">
   <stop stop-color="#1a1a1a" offset="0"/>
   <stop stop-color="#1a1a1a" stop-opacity="0" offset="1"/>
  </linearGradient>
  <linearGradient id="i" x1="253.71" x2="339.55" y1="847.18" y2="759.35" gradientUnits="userSpaceOnUse" xlink:href="#a"/>
  <linearGradient id="h" x1="-155.68" x2="-69.845" y1="839.53" y2="751.7" gradientTransform="matrix(-1 0 0 1 490.19 8.0384)" gradientUnits="userSpaceOnUse" xlink:href="#a"/>
  <linearGradient id="g" x1="249.93" x2="335.77" y1="848.43" y2="760.61" gradientUnits="userSpaceOnUse" xlink:href="#a"/>
  <linearGradient id="f" x1="-155.68" x2="-69.845" y1="839.53" y2="751.7" gradientTransform="matrix(-1 0 0 1 486.41 7.578)" gradientUnits="userSpaceOnUse" xlink:href="#a"/>
  <linearGradient id="e" x1="-155.68" x2="-69.845" y1="839.53" y2="751.7" gradientTransform="matrix(1 0 0 -1 404.18 1119.7)" gradientUnits="userSpaceOnUse" xlink:href="#a"/>
  <linearGradient id="d" x1="248.45" x2="334.29" y1="847.4" y2="759.58" gradientUnits="userSpaceOnUse" xlink:href="#a"/>
  <linearGradient id="c" x1="-155.68" x2="-69.845" y1="839.53" y2="751.7" gradientTransform="matrix(-1 0 0 1 484.93 7.6906)" gradientUnits="userSpaceOnUse" xlink:href="#a"/>
 </defs>
 <g transform="matrix(.51346 0 0 .51346 -147.4 -160.56)">
  <path d="m305.62 331.24h287.31v464.87h-287.31z" fill="#1a1a1a" fill-rule="evenodd" filter="url(#l)" opacity=".7943" stroke="#000"/>
  <path d="m305.62 331.24h287.31v464.87h-287.31z" fill="#fff" fill-rule="evenodd" opacity=".89" stroke="#000" stroke-width=".25"/>
  <path d="m306.36 722.34v73.406h85.135v-73.406h-85.135z" fill="url(#i)" fill-rule="evenodd" opacity=".7943"/>
  <path d="m593.22 722.73v73.406h-85.135v-73.406h85.135z" fill="url(#h)" fill-rule="evenodd" opacity=".7943"/>
  <path d="m302.99 331.07h287.31v464.87h-287.31z" fill="#fff" fill-rule="evenodd" opacity=".89" stroke="#000" stroke-width=".25"/>
  <path d="m302.59 723.59v73.406h85.135v-73.406h-85.135z" fill="url(#g)" fill-rule="evenodd" opacity=".7943"/>
  <path d="m589.44 722.27v73.406h-85.135v-73.406h85.135z" fill="url(#f)" fill-rule="evenodd" opacity=".7943"/>
  <path d="m300.93 331.17h287.31v464.87h-287.31z" fill="#fff" fill-rule="evenodd" stroke="#000" stroke-width=".25"/>
  <path d="m301.15 405.05v-73.406h85.135v73.406h-85.135z" fill="url(#e)" fill-rule="evenodd" opacity=".3521"/>
  <path d="m301.1 722.56v73.406h85.135v-73.406h-85.135z" fill="url(#d)" fill-rule="evenodd" opacity=".7943"/>
  <path d="m587.96 722.38v73.406h-85.135v-73.406h85.135z" fill="url(#c)" fill-rule="evenodd" opacity=".7943"/>
  <g transform="matrix(1.1522 0 0 1 -67.133 -6)" fill="none" opacity=".25" stroke="#000080">
   <path d="m322.15 386.67h237.84"/>
   <path d="m322.15 409.46h237.84"/>
   <path d="m322.15 432.26h237.84"/>
   <path d="m322.15 455.05h237.84"/>
   <path d="m322.15 477.85h237.84"/>
   <path d="m322.15 500.64h237.84"/>
   <path d="m322.15 523.43h237.84"/>
   <path d="m322.15 546.23h237.84"/>
   <path d="m322.15 569.02h237.84"/>
   <path d="m322.15 591.82h237.84"/>
   <path d="m322.15 614.61h237.84"/>
   <path d="m322.15 637.41h237.84"/>
   <path d="m322.15 660.2h237.84"/>
   <path d="m322.15 682.99h237.84"/>
   <path d="m322.15 705.79h237.84"/>
   <path d="m322.15 728.58h237.84"/>
   <path d="m322.15 774.17h237.84"/>
   <path d="m322.15 751.38h237.84"/>
  </g>
  <path d="m344.8 331.3v463.97" fill="none" stroke="#f00" stroke-width="1.0368"/>
  <path d="m337.32 346.33-26.568 25.309" fill="none" filter="url(#k)" opacity=".7324" stroke="#000" stroke-linecap="round" stroke-linejoin="round" stroke-width="2"/>
  <path transform="translate(.28469,.28468)" d="m312.8 371.14c0 1.0023-0.86035 1.8149-1.9216 1.8149s-1.9216-0.81255-1.9216-1.8149 0.86034-1.8149 1.9216-1.8149 1.9216 0.81255 1.9216 1.8149z" fill="#1a1a1a" fill-rule="evenodd" filter="url(#b)" opacity=".3521"/>
  <path transform="translate(26.832 -25.408)" d="m312.8 371.14c0 1.0023-0.86035 1.8149-1.9216 1.8149s-1.9216-0.81255-1.9216-1.8149 0.86034-1.8149 1.9216-1.8149 1.9216 0.81255 1.9216 1.8149z" fill="#1a1a1a" fill-rule="evenodd" filter="url(#b)" opacity=".3521"/>
  <path d="m337.68 345.9-26.568 25.309" fill="#999" stroke="#999" stroke-linecap="round" stroke-linejoin="round" stroke-width="2"/>
  <path d="m337.68 345.9-26.568 25.309" fill="#fff" filter="url(#j)" opacity=".6667" stroke="#fff" stroke-linecap="round" stroke-linejoin="round" stroke-width=".5"/>
 </g>
</svg>
